<?xml version="1.0" encoding="UTF-8"?>
<svg xmlns="http://www.w3.org/2000/svg" id="Layer_1" data-name="Layer 1" viewBox="0 0 24 24" width="512" height="512"><path d="m23.191,14.731l-5.578-10.479c-1.405-2.561-4.455-3.823-7.254-2.999-.008.002-.014.009-.022.012-1.077-.791-2.401-1.265-3.837-1.265C2.916,0,0,2.916,0,6.5v11c0,3.584,2.916,6.5,6.5,6.5,2.432,0,4.553-1.344,5.667-3.327l.04.075c.804,1.467,2.132,2.532,3.737,3,.581.169,1.173.253,1.762.253,1.039,0,2.066-.261,3.002-.774,1.467-.804,2.532-2.132,3-3.737.468-1.606.283-3.298-.518-4.759Zm-6.458-10.004l2.636,4.952-6.369,3.493v-6.672c0-1.703-.664-3.251-1.74-4.412,2.17-.357,4.399.679,5.474,2.639ZM6.5,1c3.033,0,5.5,2.467,5.5,5.5v5H1v-5C1,3.467,3.467,1,6.5,1Zm0,22c-3.033,0-5.5-2.467-5.5-5.5v-5h11v5c0,3.033-2.467,5.5-5.5,5.5Zm13.728-.649c-1.232.676-2.655.831-4.003.438-1.35-.394-2.465-1.289-3.138-2.516l-.408-.766c.206-.633.321-1.307.321-2.007v-3.188l6.839-3.75,2.472,4.645c1.396,2.544.461,5.749-2.083,7.144Z"/></svg>
