<?xml version="1.0" encoding="UTF-8"?>
<svg xmlns="http://www.w3.org/2000/svg" id="Layer_1" data-name="Layer 1" viewBox="0 0 24 24">
  <path d="m20,7.226c.381-.254,4-2.482,4-4.976,0-1.241-1.01-2.25-2.25-2.25-.706,0-1.337.327-1.75.837-.413-.511-1.044-.837-1.75-.837-1.24,0-2.25,1.009-2.25,2.25,0,2.494,3.619,4.722,4,4.976Zm-1.75-6.226c.689,0,1.25.561,1.25,1.25h1c0-.689.561-1.25,1.25-1.25s1.25.561,1.25,1.25c0,1.322-1.961,3.014-3,3.766-1.039-.752-3-2.444-3-3.766,0-.689.561-1.25,1.25-1.25Zm2.24,7.976c-3.031,0-5.308,2.382-6.103,3.343-.556-.206-1.19-.343-1.897-.343-1.848,0-3.601.981-4.816,1.874.476-1.868.414-3.835.361-5.498-.03-.948-.057-1.791.035-2.352h2.729l1-2h1.182l.02-1c0-1.454-1.227-3-3.5-3-1.67,0-2.989,1.147-3.019,1.175C-.109,6.245-.031,15.012,0,18.419c.155.223,3.993,5.581,11.5,5.581,7.399,0,12.074-3.073,12.27-3.204l.222-.148v-10.848s-.981-.824-3.501-.824Zm-8.99,14.024c-6.364,0-9.906-4.147-10.501-4.907-.033-3.535-.104-11.359,6.117-16.146.011-.009,1.099-.947,2.384-.947,1.821,0,2.5,1.227,2.5,1.99l-2.01.01v-1h-1v2h1.691l-.5,1h-2.855c-.247.699-.332,2.07-.29,3.384.067,2.088.042,4.786-1.013,6.892l.729.686c.028-.03,2.845-2.986,5.738-2.986,2.326,0,3.776,1.877,3.791,1.896l.8-.601c-.042-.056-.669-.859-1.761-1.5.82-.932,2.761-2.796,5.17-2.796,1.522,0,2.5.409,2.5.409v9.717c-.998.592-5.288,2.898-11.49,2.898Z"/>
</svg>
