<?xml version="1.0" encoding="UTF-8"?>
<svg xmlns="http://www.w3.org/2000/svg" id="Layer_1" data-name="Layer 1" viewBox="0 0 24 24" width="512" height="512"><path d="m8.423,14.166c1.841-.614,3.077-2.33,3.077-4.27V.5c0-.276.224-.5.5-.5s.5.224.5.5v9.396c0,1.94,1.236,3.656,3.077,4.27l2.581.86c.262.087.403.37.316.632-.07.209-.266.342-.475.342-.053,0-2.739-.886-2.739-.886-1.489-.496-2.643-1.59-3.261-2.956-.618,1.367-1.771,2.46-3.261,2.956,0,0-2.687.886-2.739.886-.209,0-.404-.132-.475-.342-.087-.262.055-.545.316-.632l2.581-.86Zm2.077,1.834c-.276,0-.5.224-.5.5v2.556c0,1.408-.95,2.645-2.312,3.007l-2.959.789c-.294.098-.596.148-.897.148h-.004c-.741,0-1.47-.304-2.001-.834-.533-.532-.827-1.243-.827-2.001,0-1.437.164-2.874.479-4.239l2.096-7.007c.532-2.307,2.558-3.918,4.926-3.918.276,0,.5-.224.5-.5s-.224-.5-.5-.5c-2.837,0-5.264,1.93-5.893,4.663L.512,15.669c-.34,1.47-.512,2.982-.512,4.495,0,1.026.397,1.988,1.12,2.709.718.716,1.704,1.127,2.707,1.127h.007c.408,0,.815-.068,1.183-.19l2.93-.78c1.798-.479,3.054-2.113,3.054-3.974v-2.556c0-.276-.224-.5-.5-.5Zm12.979-.362l-2.079-6.944c-.637-2.764-3.063-4.694-5.9-4.694-.276,0-.5.224-.5.5s.224.5.5.5c2.368,0,4.394,1.611,4.934,3.95l2.08,6.945c.322,1.396.486,2.833.486,4.27,0,.758-.294,1.469-.827,2.001-.531.53-1.26.834-2.001.834h-.004c-.302,0-.604-.05-.927-.157l-2.93-.779c-1.361-.363-2.312-1.6-2.312-3.008v-2.556c0-.276-.224-.5-.5-.5s-.5.224-.5.5v2.556c0,1.861,1.256,3.495,3.054,3.974l2.9.771c.396.131.804.199,1.212.199h.006c1.004,0,1.99-.411,2.708-1.127.723-.721,1.12-1.683,1.12-2.709,0-1.513-.172-3.025-.521-4.526Z"/></svg>
