<?xml version="1.0" encoding="UTF-8"?>
<svg xmlns="http://www.w3.org/2000/svg" id="Layer_1" data-name="Layer 1" viewBox="0 0 24 24">
  <path d="m22,4c-1.417,0-2.656.149-3.752.39l1.573-2.359-2.496-1.664-1.47,2.205c-.266-.153-.551-.275-.855-.366V0h-3v2.189c-.325.08-.646.187-.958.319l-1.386-2.198-2.537,1.6,1.468,2.328c-.782.811-1.321,1.663-1.653,2.268C6.468,2.627,3.337,0,.5,0h-.5v3h.5c1.656,0,3.426,1.673,3.489,5.313-1.228,1.082-1.989,2.749-1.989,4.687,0,4.764,4.619,9.418,10.744,10.826.508.117.98.175,1.423.175.548,0,1.049-.089,1.514-.269,2.807-1.087,4.32-5.568,4.319-9.231,0-1.898-.442-2.875-.911-3.91-.086-.192-.175-.387-.263-.594-.272-.643-.272-1.157.002-1.571.746-1.127,3.382-1.425,4.672-1.425h.5v-3h-2Zm-13.502-1.777l.846-.533,1.331,2.111.407-.208c.48-.245.986-.416,1.504-.505l.414-.072V1h1v2.005l.402.081c.498.1.917.287,1.282.574l.425.333,1.493-2.24.832.555-1.654,2.482c-3.19,1.074-4.777,2.97-5.402,3.925-.994-.825-2.403-1.58-3.586-1.692.333-.61.919-1.538,1.776-2.349l.298-.283-1.367-2.168Zm-7.498-.187v-1.002c2.388.316,4.853,2.842,4.987,6.184-.365.106-.713.249-1.04.427-.262-3.539-2.085-5.341-3.947-5.609Zm22,3.976c-1.244.054-4.003.347-5.006,1.862-.467.705-.496,1.551-.088,2.513.09.213.182.417.271.615.441.975.821,1.816.822,3.498,0,3.378-1.376,7.406-3.681,8.299-.644.25-1.413.268-2.351.052-5.59-1.285-9.969-5.612-9.969-9.851,0-2.897,1.893-5,4.5-5,1.047,0,2.568.859,3.486,1.707-.075,3.217-1.84,5.467-4.953,6.391.189.288.409.57.643.846,3.334-1.13,5.265-3.733,5.314-7.308.316-.606,2.69-4.637,10.009-4.637h1v1.012Z"/>
</svg>
